<mxfile host="65bd71144e">
    <diagram id="XrV7SsJCw38dFSqlvUkh" name="Page-1">
        <mxGraphModel dx="1825" dy="2053" grid="1" gridSize="10" guides="1" tooltips="1" connect="1" arrows="1" fold="1" page="1" pageScale="1" pageWidth="850" pageHeight="1100" math="0" shadow="0">
            <root>
                <mxCell id="0"/>
                <mxCell id="1" parent="0"/>
                <mxCell id="2" value="" style="whiteSpace=wrap;html=1;" vertex="1" parent="1">
                    <mxGeometry x="-840" y="-1060" width="140" height="250" as="geometry"/>
                </mxCell>
                <mxCell id="3" value="HOME" style="text;html=1;resizable=0;autosize=1;align=center;verticalAlign=middle;points=[];fillColor=none;strokeColor=none;rounded=0;fontStyle=1" vertex="1" parent="1">
                    <mxGeometry x="-795" y="-840" width="50" height="20" as="geometry"/>
                </mxCell>
                <mxCell id="4" value="" style="whiteSpace=wrap;html=1;fillColor=#60a917;fontColor=#ffffff;strokeColor=#2D7600;" vertex="1" parent="1">
                    <mxGeometry x="-825" y="-1050" width="110" height="30" as="geometry"/>
                </mxCell>
                <mxCell id="5" value="Navigation" style="text;html=1;resizable=0;autosize=1;align=center;verticalAlign=middle;points=[];fillColor=none;strokeColor=none;rounded=0;" vertex="1" parent="1">
                    <mxGeometry x="-805" y="-1045" width="70" height="20" as="geometry"/>
                </mxCell>
                <mxCell id="6" value="" style="shape=image;imageAspect=0;aspect=fixed;verticalLabelPosition=bottom;verticalAlign=top;image=https://freesvg.org/img/Placeholder.png;" vertex="1" parent="1">
                    <mxGeometry x="-825" y="-1010" width="110" height="110" as="geometry"/>
                </mxCell>
                <mxCell id="7" value="" style="whiteSpace=wrap;html=1;rounded=1;fillColor=#1ba1e2;fontColor=#ffffff;strokeColor=#006EAF;" vertex="1" parent="1">
                    <mxGeometry x="-815" y="-890" width="90" height="30" as="geometry"/>
                </mxCell>
                <mxCell id="39" value="" style="edgeStyle=none;html=1;" edge="1" parent="1" source="8">
                    <mxGeometry relative="1" as="geometry">
                        <mxPoint x="-630" y="-890" as="targetPoint"/>
                    </mxGeometry>
                </mxCell>
                <mxCell id="8" value="Get Started" style="text;html=1;resizable=0;autosize=1;align=center;verticalAlign=middle;points=[];fillColor=none;strokeColor=none;rounded=0;fontStyle=4" vertex="1" parent="1">
                    <mxGeometry x="-810" y="-885" width="80" height="20" as="geometry"/>
                </mxCell>
                <mxCell id="9" value="" style="whiteSpace=wrap;html=1;" vertex="1" parent="1">
                    <mxGeometry x="-670" y="-1060" width="140" height="250" as="geometry"/>
                </mxCell>
                <mxCell id="10" value="FORM 1" style="text;html=1;resizable=0;autosize=1;align=center;verticalAlign=middle;points=[];fillColor=none;strokeColor=none;rounded=0;fontStyle=1" vertex="1" parent="1">
                    <mxGeometry x="-630" y="-840" width="60" height="20" as="geometry"/>
                </mxCell>
                <mxCell id="11" value="" style="whiteSpace=wrap;html=1;fillColor=#60a917;fontColor=#ffffff;strokeColor=#2D7600;" vertex="1" parent="1">
                    <mxGeometry x="-655" y="-1050" width="110" height="30" as="geometry"/>
                </mxCell>
                <mxCell id="12" value="Navigation" style="text;html=1;resizable=0;autosize=1;align=center;verticalAlign=middle;points=[];fillColor=none;strokeColor=none;rounded=0;" vertex="1" parent="1">
                    <mxGeometry x="-635" y="-1045" width="70" height="20" as="geometry"/>
                </mxCell>
                <mxCell id="40" value="" style="edgeStyle=none;html=1;" edge="1" parent="1" source="14">
                    <mxGeometry relative="1" as="geometry">
                        <mxPoint x="-470" y="-890" as="targetPoint"/>
                    </mxGeometry>
                </mxCell>
                <mxCell id="14" value="" style="whiteSpace=wrap;html=1;rounded=1;fillColor=#1ba1e2;fontColor=#ffffff;strokeColor=#006EAF;" vertex="1" parent="1">
                    <mxGeometry x="-645" y="-870" width="90" height="20" as="geometry"/>
                </mxCell>
                <mxCell id="15" value="Submit" style="text;html=1;resizable=0;autosize=1;align=center;verticalAlign=middle;points=[];fillColor=none;strokeColor=none;rounded=0;fontStyle=4" vertex="1" parent="1">
                    <mxGeometry x="-625" y="-870" width="50" height="20" as="geometry"/>
                </mxCell>
                <mxCell id="16" value="Target Muscle Groups:" style="text;html=1;resizable=0;autosize=1;align=center;verticalAlign=middle;points=[];fillColor=none;strokeColor=none;rounded=0;fontSize=9;" vertex="1" parent="1">
                    <mxGeometry x="-655" y="-1005" width="110" height="20" as="geometry"/>
                </mxCell>
                <mxCell id="22" value="" style="whiteSpace=wrap;html=1;rounded=1;fillColor=#f5f5f5;fontColor=#333333;strokeColor=#666666;" vertex="1" parent="1">
                    <mxGeometry x="-645" y="-985" width="10" height="10" as="geometry"/>
                </mxCell>
                <mxCell id="23" value="MG 1" style="text;html=1;resizable=0;autosize=1;align=center;verticalAlign=middle;points=[];fillColor=none;strokeColor=none;rounded=0;fontSize=9;" vertex="1" parent="1">
                    <mxGeometry x="-635" y="-990" width="40" height="20" as="geometry"/>
                </mxCell>
                <mxCell id="24" value="MG 2" style="text;html=1;resizable=0;autosize=1;align=center;verticalAlign=middle;points=[];fillColor=none;strokeColor=none;rounded=0;fontSize=9;" vertex="1" parent="1">
                    <mxGeometry x="-635" y="-975" width="40" height="20" as="geometry"/>
                </mxCell>
                <mxCell id="25" value="Etc" style="text;html=1;resizable=0;autosize=1;align=center;verticalAlign=middle;points=[];fillColor=none;strokeColor=none;rounded=0;fontSize=9;" vertex="1" parent="1">
                    <mxGeometry x="-634" y="-960" width="30" height="20" as="geometry"/>
                </mxCell>
                <mxCell id="26" value="" style="whiteSpace=wrap;html=1;" vertex="1" parent="1">
                    <mxGeometry x="-500" y="-1060" width="140" height="250" as="geometry"/>
                </mxCell>
                <mxCell id="27" value="FORM 2" style="text;html=1;resizable=0;autosize=1;align=center;verticalAlign=middle;points=[];fillColor=none;strokeColor=none;rounded=0;fontStyle=1" vertex="1" parent="1">
                    <mxGeometry x="-460" y="-840" width="60" height="20" as="geometry"/>
                </mxCell>
                <mxCell id="28" value="" style="whiteSpace=wrap;html=1;fillColor=#60a917;fontColor=#ffffff;strokeColor=#2D7600;" vertex="1" parent="1">
                    <mxGeometry x="-485" y="-1050" width="110" height="30" as="geometry"/>
                </mxCell>
                <mxCell id="29" value="Navigation" style="text;html=1;resizable=0;autosize=1;align=center;verticalAlign=middle;points=[];fillColor=none;strokeColor=none;rounded=0;" vertex="1" parent="1">
                    <mxGeometry x="-465" y="-1045" width="70" height="20" as="geometry"/>
                </mxCell>
                <mxCell id="75" value="" style="edgeStyle=none;html=1;fontSize=9;entryX=-0.02;entryY=0.708;entryDx=0;entryDy=0;entryPerimeter=0;" edge="1" parent="1" source="30" target="59">
                    <mxGeometry relative="1" as="geometry"/>
                </mxCell>
                <mxCell id="30" value="" style="whiteSpace=wrap;html=1;rounded=1;fillColor=#1ba1e2;fontColor=#ffffff;strokeColor=#006EAF;" vertex="1" parent="1">
                    <mxGeometry x="-475" y="-867" width="90" height="20" as="geometry"/>
                </mxCell>
                <mxCell id="31" value="Submit" style="text;html=1;resizable=0;autosize=1;align=center;verticalAlign=middle;points=[];fillColor=none;strokeColor=none;rounded=0;fontStyle=4" vertex="1" parent="1">
                    <mxGeometry x="-455" y="-868" width="50" height="20" as="geometry"/>
                </mxCell>
                <mxCell id="32" value="All Applicable Exercises" style="text;html=1;resizable=0;autosize=1;align=center;verticalAlign=middle;points=[];fillColor=none;strokeColor=none;rounded=0;" vertex="1" parent="1">
                    <mxGeometry x="-500" y="-1010" width="140" height="20" as="geometry"/>
                </mxCell>
                <mxCell id="41" value="" style="whiteSpace=wrap;html=1;rounded=1;fillColor=#f5f5f5;fontColor=#333333;strokeColor=#666666;" vertex="1" parent="1">
                    <mxGeometry x="-645" y="-970" width="10" height="10" as="geometry"/>
                </mxCell>
                <mxCell id="42" value="" style="whiteSpace=wrap;html=1;rounded=1;fillColor=#f5f5f5;fontColor=#333333;strokeColor=#666666;" vertex="1" parent="1">
                    <mxGeometry x="-645" y="-955" width="10" height="10" as="geometry"/>
                </mxCell>
                <mxCell id="44" value="" style="whiteSpace=wrap;html=1;rounded=1;fillColor=#f5f5f5;fontColor=#333333;strokeColor=#666666;" vertex="1" parent="1">
                    <mxGeometry x="-644" y="-920" width="10" height="10" as="geometry"/>
                </mxCell>
                <mxCell id="45" value="Weights" style="text;html=1;resizable=0;autosize=1;align=center;verticalAlign=middle;points=[];fillColor=none;strokeColor=none;rounded=0;fontSize=9;" vertex="1" parent="1">
                    <mxGeometry x="-635" y="-925" width="50" height="20" as="geometry"/>
                </mxCell>
                <mxCell id="46" value="Mat" style="text;html=1;resizable=0;autosize=1;align=center;verticalAlign=middle;points=[];fillColor=none;strokeColor=none;rounded=0;fontSize=9;" vertex="1" parent="1">
                    <mxGeometry x="-634" y="-910" width="30" height="20" as="geometry"/>
                </mxCell>
                <mxCell id="47" value="" style="whiteSpace=wrap;html=1;rounded=1;fillColor=#f5f5f5;fontColor=#333333;strokeColor=#666666;" vertex="1" parent="1">
                    <mxGeometry x="-644" y="-905" width="10" height="10" as="geometry"/>
                </mxCell>
                <mxCell id="48" value="" style="whiteSpace=wrap;html=1;rounded=1;fillColor=#f5f5f5;fontColor=#333333;strokeColor=#666666;" vertex="1" parent="1">
                    <mxGeometry x="-644" y="-890" width="10" height="10" as="geometry"/>
                </mxCell>
                <mxCell id="49" value="Equipment:" style="text;html=1;resizable=0;autosize=1;align=center;verticalAlign=middle;points=[];fillColor=none;strokeColor=none;rounded=0;fontSize=9;" vertex="1" parent="1">
                    <mxGeometry x="-654" y="-940" width="60" height="20" as="geometry"/>
                </mxCell>
                <mxCell id="50" value="Etc" style="text;html=1;resizable=0;autosize=1;align=center;verticalAlign=middle;points=[];fillColor=none;strokeColor=none;rounded=0;fontSize=9;" vertex="1" parent="1">
                    <mxGeometry x="-635" y="-895" width="30" height="20" as="geometry"/>
                </mxCell>
                <mxCell id="51" value="" style="whiteSpace=wrap;html=1;rounded=1;fontSize=9;" vertex="1" parent="1">
                    <mxGeometry x="-490" y="-985" width="120" height="30" as="geometry"/>
                </mxCell>
                <mxCell id="52" value="Exercise 1" style="text;html=1;resizable=0;autosize=1;align=center;verticalAlign=middle;points=[];fillColor=none;strokeColor=none;rounded=0;fontSize=9;" vertex="1" parent="1">
                    <mxGeometry x="-445" y="-980" width="60" height="20" as="geometry"/>
                </mxCell>
                <mxCell id="53" value="" style="whiteSpace=wrap;html=1;rounded=1;fontSize=9;" vertex="1" parent="1">
                    <mxGeometry x="-490" y="-950" width="120" height="30" as="geometry"/>
                </mxCell>
                <mxCell id="54" value="Exercise 2" style="text;html=1;resizable=0;autosize=1;align=center;verticalAlign=middle;points=[];fillColor=none;strokeColor=none;rounded=0;fontSize=9;" vertex="1" parent="1">
                    <mxGeometry x="-445" y="-945" width="60" height="20" as="geometry"/>
                </mxCell>
                <mxCell id="35" value="" style="whiteSpace=wrap;html=1;rounded=1;fillColor=#f5f5f5;fontColor=#333333;strokeColor=#666666;" vertex="1" parent="1">
                    <mxGeometry x="-475" y="-975" width="10" height="10" as="geometry"/>
                </mxCell>
                <mxCell id="55" value="" style="whiteSpace=wrap;html=1;rounded=1;fillColor=#f5f5f5;fontColor=#333333;strokeColor=#666666;" vertex="1" parent="1">
                    <mxGeometry x="-475" y="-940" width="10" height="10" as="geometry"/>
                </mxCell>
                <mxCell id="56" value="" style="whiteSpace=wrap;html=1;rounded=1;fontSize=9;" vertex="1" parent="1">
                    <mxGeometry x="-490" y="-915" width="120" height="30" as="geometry"/>
                </mxCell>
                <mxCell id="57" value="Exercise 3" style="text;html=1;resizable=0;autosize=1;align=center;verticalAlign=middle;points=[];fillColor=none;strokeColor=none;rounded=0;fontSize=9;" vertex="1" parent="1">
                    <mxGeometry x="-445" y="-910" width="60" height="20" as="geometry"/>
                </mxCell>
                <mxCell id="58" value="" style="whiteSpace=wrap;html=1;rounded=1;fillColor=#f5f5f5;fontColor=#333333;strokeColor=#666666;" vertex="1" parent="1">
                    <mxGeometry x="-475" y="-905" width="10" height="10" as="geometry"/>
                </mxCell>
                <mxCell id="59" value="" style="whiteSpace=wrap;html=1;" vertex="1" parent="1">
                    <mxGeometry x="-320" y="-1060" width="140" height="250" as="geometry"/>
                </mxCell>
                <mxCell id="60" value="Exercise List" style="text;html=1;resizable=0;autosize=1;align=center;verticalAlign=middle;points=[];fillColor=none;strokeColor=none;rounded=0;fontStyle=1" vertex="1" parent="1">
                    <mxGeometry x="-295" y="-840" width="90" height="20" as="geometry"/>
                </mxCell>
                <mxCell id="61" value="" style="whiteSpace=wrap;html=1;fillColor=#60a917;fontColor=#ffffff;strokeColor=#2D7600;" vertex="1" parent="1">
                    <mxGeometry x="-305" y="-1050" width="110" height="30" as="geometry"/>
                </mxCell>
                <mxCell id="62" value="Navigation" style="text;html=1;resizable=0;autosize=1;align=center;verticalAlign=middle;points=[];fillColor=none;strokeColor=none;rounded=0;" vertex="1" parent="1">
                    <mxGeometry x="-285" y="-1045" width="70" height="20" as="geometry"/>
                </mxCell>
                <mxCell id="63" value="" style="whiteSpace=wrap;html=1;rounded=1;fillColor=#1ba1e2;fontColor=#ffffff;strokeColor=#006EAF;" vertex="1" parent="1">
                    <mxGeometry x="-295" y="-867" width="90" height="20" as="geometry"/>
                </mxCell>
                <mxCell id="64" value="Submit" style="text;html=1;resizable=0;autosize=1;align=center;verticalAlign=middle;points=[];fillColor=none;strokeColor=none;rounded=0;fontStyle=4" vertex="1" parent="1">
                    <mxGeometry x="-275" y="-868" width="50" height="20" as="geometry"/>
                </mxCell>
                <mxCell id="65" value="Your Workout" style="text;html=1;resizable=0;autosize=1;align=center;verticalAlign=middle;points=[];fillColor=none;strokeColor=none;rounded=0;" vertex="1" parent="1">
                    <mxGeometry x="-295" y="-1010" width="90" height="20" as="geometry"/>
                </mxCell>
                <mxCell id="66" value="" style="whiteSpace=wrap;html=1;rounded=1;fontSize=9;" vertex="1" parent="1">
                    <mxGeometry x="-310" y="-985" width="120" height="30" as="geometry"/>
                </mxCell>
                <mxCell id="67" value="Exercise 1" style="text;html=1;resizable=0;autosize=1;align=center;verticalAlign=middle;points=[];fillColor=none;strokeColor=none;rounded=0;fontSize=9;" vertex="1" parent="1">
                    <mxGeometry x="-280" y="-980" width="60" height="20" as="geometry"/>
                </mxCell>
                <mxCell id="90" value="" style="edgeStyle=none;html=1;fontSize=9;entryX=0;entryY=0.5;entryDx=0;entryDy=0;exitX=1;exitY=0.5;exitDx=0;exitDy=0;" edge="1" parent="1" source="66" target="76">
                    <mxGeometry relative="1" as="geometry">
                        <mxPoint x="-160" y="-935" as="targetPoint"/>
                    </mxGeometry>
                </mxCell>
                <mxCell id="68" value="" style="whiteSpace=wrap;html=1;rounded=1;fontSize=9;" vertex="1" parent="1">
                    <mxGeometry x="-310" y="-950" width="120" height="30" as="geometry"/>
                </mxCell>
                <mxCell id="69" value="Exercise 2" style="text;html=1;resizable=0;autosize=1;align=center;verticalAlign=middle;points=[];fillColor=none;strokeColor=none;rounded=0;fontSize=9;" vertex="1" parent="1">
                    <mxGeometry x="-280" y="-945" width="60" height="20" as="geometry"/>
                </mxCell>
                <mxCell id="76" value="" style="whiteSpace=wrap;html=1;" vertex="1" parent="1">
                    <mxGeometry x="-150" y="-1060" width="140" height="250" as="geometry"/>
                </mxCell>
                <mxCell id="77" value="Exercise Details" style="text;html=1;resizable=0;autosize=1;align=center;verticalAlign=middle;points=[];fillColor=none;strokeColor=none;rounded=0;fontStyle=1" vertex="1" parent="1">
                    <mxGeometry x="-135" y="-840" width="110" height="20" as="geometry"/>
                </mxCell>
                <mxCell id="78" value="" style="whiteSpace=wrap;html=1;fillColor=#60a917;fontColor=#ffffff;strokeColor=#2D7600;" vertex="1" parent="1">
                    <mxGeometry x="-135" y="-1050" width="110" height="30" as="geometry"/>
                </mxCell>
                <mxCell id="79" value="Navigation" style="text;html=1;resizable=0;autosize=1;align=center;verticalAlign=middle;points=[];fillColor=none;strokeColor=none;rounded=0;" vertex="1" parent="1">
                    <mxGeometry x="-115" y="-1045" width="70" height="20" as="geometry"/>
                </mxCell>
                <mxCell id="80" value="" style="whiteSpace=wrap;html=1;rounded=1;fillColor=#1ba1e2;fontColor=#ffffff;strokeColor=#006EAF;" vertex="1" parent="1">
                    <mxGeometry x="-125" y="-867" width="90" height="20" as="geometry"/>
                </mxCell>
                <mxCell id="81" value="Submit" style="text;html=1;resizable=0;autosize=1;align=center;verticalAlign=middle;points=[];fillColor=none;strokeColor=none;rounded=0;fontStyle=4" vertex="1" parent="1">
                    <mxGeometry x="-105" y="-868" width="50" height="20" as="geometry"/>
                </mxCell>
                <mxCell id="83" value="" style="whiteSpace=wrap;html=1;rounded=1;fontSize=9;" vertex="1" parent="1">
                    <mxGeometry x="-140" y="-985" width="120" height="105" as="geometry"/>
                </mxCell>
                <mxCell id="84" value="Exercise 1 Details" style="text;html=1;resizable=0;autosize=1;align=center;verticalAlign=middle;points=[];fillColor=none;strokeColor=none;rounded=0;fontSize=9;" vertex="1" parent="1">
                    <mxGeometry x="-125" y="-945" width="90" height="20" as="geometry"/>
                </mxCell>
                <mxCell id="89" value="Exercise Name" style="text;html=1;resizable=0;autosize=1;align=center;verticalAlign=middle;points=[];fillColor=none;strokeColor=none;rounded=0;" vertex="1" parent="1">
                    <mxGeometry x="-130" y="-1010" width="100" height="20" as="geometry"/>
                </mxCell>
            </root>
        </mxGraphModel>
    </diagram>
</mxfile>